<?xml version="1.0" encoding="UTF-8"?>
<svg id="Camada_2" data-name="Camada 2" xmlns="http://www.w3.org/2000/svg" xmlns:xlink="http://www.w3.org/1999/xlink" viewBox="0 0 306 301">
  <defs>
    <style>
      .cls-1 {
        fill: url(#Gradiente_sem_nome_100);
        stroke: url(#Gradiente_sem_nome_100-2);
      }

      .cls-1, .cls-2 {
        stroke-miterlimit: 10;
      }

      .cls-3, .cls-4 {
        fill: #fff;
      }

      .cls-2 {
        fill: url(#Gradiente_sem_nome_106);
        stroke: url(#Gradiente_sem_nome_106-2);
      }

      .cls-4 {
        stroke: #fff;
        stroke-linecap: round;
        stroke-linejoin: round;
        stroke-width: .75px;
      }
    </style>
    <linearGradient id="Gradiente_sem_nome_106" data-name="Gradiente sem nome 106" x1="50.44" y1="305.77" x2="255.56" y2="-4.77" gradientUnits="userSpaceOnUse">
      <stop offset="0" stop-color="#6822bd"/>
      <stop offset="1" stop-color="#b37eed"/>
    </linearGradient>
    <linearGradient id="Gradiente_sem_nome_106-2" data-name="Gradiente sem nome 106" x1="50.17" y1="306.19" x2="255.83" y2="-5.19" xlink:href="#Gradiente_sem_nome_106"/>
    <linearGradient id="Gradiente_sem_nome_100" data-name="Gradiente sem nome 100" x1="103.91" y1="249.37" x2="211.33" y2="86.74" gradientUnits="userSpaceOnUse">
      <stop offset="0" stop-color="#915ad5"/>
      <stop offset=".18" stop-color="#a373de"/>
      <stop offset=".46" stop-color="#bb94ea"/>
      <stop offset=".69" stop-color="#caa8f1"/>
      <stop offset=".84" stop-color="#d0b0f4"/>
    </linearGradient>
    <linearGradient id="Gradiente_sem_nome_100-2" data-name="Gradiente sem nome 100" x1="102.4" y1="251.66" x2="221.39" y2="71.52" xlink:href="#Gradiente_sem_nome_100"/>
  </defs>
  <rect id="fundo" class="cls-2" x=".5" y=".5" width="305" height="300" rx="60" ry="60"/>
  <path id="gota" class="cls-1" d="M226.46,238.84h0c38.57-38.57,38.57-101.11,0-139.68L157,29.7l-69.46,69.46c-38.57,38.57-38.57,101.11,0,139.68h0c38.36,38.36,100.56,38.36,138.92,0Z"/>
  <path class="cls-3" d="M228.86,100.88l-15.86-15.86-14.15-14.13-21.5,28.22,44.36,33.8,16.1-21.14c-2.81-3.75-5.55-7.48-8.96-10.9Z"/>
  <path class="cls-4" d="M153.5,183.49c.17,0,.33.01.5.01,6.35,0,11.5-5.15,11.5-11.5s-5-11.5-11.5-11.5-11.5,5.15-11.5,11.5c0,2.22.63,4.3,1.72,6.06l.28.44-52.52,64.52,26.02-100.02,44-28,44,34-12.33,46.33-90.25,56.41,50.07-68.24h.5"/>
</svg>